<svg xmlns="http://www.w3.org/2000/svg" viewBox="0 0 680 66"><title>payment-methods</title><path d="M104.66667,49.23957v.26769c-.1632-.00488-.32639-.01394-.48959-.014-2.31931-.00092-4.63863-.00527-6.9579.00491-.30943.00136-.46135-.04705-.52862-.40587-.2597-1.3852-.57827-2.75927-.85034-4.14233-.05908-.30037-.1827-.37107-.47024-.371q-5.01688.00089-10.03371-.028a.50211.50211,0,0,0-.57135.39829c-.48087,1.386-1.00031,2.75871-1.48,4.14516a.49394.49394,0,0,1-.55868.40633q-4.03637-.02166-8.07288-.001c-.3812.00191-.43733-.06085-.28434-.42581q6.20772-14.8089,12.39-29.62844a4.14128,4.14128,0,0,1,4.10392-2.7718c2.18525-.01633,4.37072-.00518,6.55591-.02522.32442-.003.417.10671.48.41054q1.4407,6.95231,2.9073,13.89925c1.02374,4.89435,2.03588,9.79114,3.06825,14.68367C104.12794,46.84322,104.32348,48.0579,104.66667,49.23957Zm-12.83-23.628c-.43781,1.211-.82613,2.29713-1.22283,3.38018q-1.54446,4.21659-3.1,8.42908c-.10417.281-.14435.40772.24418.4048q3.12113-.02346,6.24247.00086c.33344.00262.35562-.11689.30008-.38273C93.48533,33.54243,92.67467,29.64016,91.83662,25.61158Z" style="fill:#0f4595"/><path d="M70.13528,16.04661a10.37216,10.37216,0,0,0,1.73172.2608,23.0718,23.0718,0,0,1,3.87639.99357.36667.36667,0,0,1,.28428.48728q-.54036,3.22783-1.05425,6.46c-.04358.27638-.104.315-.35274.1906A14.6134,14.6134,0,0,0,67.598,22.93412a6.6238,6.6238,0,0,0-3.13883.71838A2.39978,2.39978,0,0,0,62.98,25.85395a2.04023,2.04023,0,0,0,.63989,1.37834,8.32581,8.32581,0,0,0,1.8961,1.39352c1.42877.84964,2.973,1.48509,4.38479,2.36588a11.88287,11.88287,0,0,1,3.53377,3.15522,8.29035,8.29035,0,0,1,1.114,7.028,10.3873,10.3873,0,0,1-6.20387,7.17639,18.19767,18.19767,0,0,1-5.92332,1.513c-.1078.011-.24343-.05306-.3166.08916H58.08945a8.56144,8.56144,0,0,0-1.77324-.25906,24.75113,24.75113,0,0,1-5.26509-1.281c-.32017-.1218-.443-.26078-.37841-.63765.37871-2.20855.7325-4.4215,1.07442-6.6361.05247-.33983.17689-.246.37113-.1525a21.92166,21.92166,0,0,0,3.8,1.49716,15.57389,15.57389,0,0,0,6.70095.418,4.95136,4.95136,0,0,0,2.26945-.97138A2.46056,2.46056,0,0,0,65.1212,38.059a10.65152,10.65152,0,0,0-2.82109-1.84551A27.89227,27.89227,0,0,1,58.06,33.78041a8.83429,8.83429,0,0,1-3.61763-4.71706,8.84389,8.84389,0,0,1,1.69255-7.97427,12.7,12.7,0,0,1,7.18476-4.41435,17.99142,17.99142,0,0,1,3.24544-.54065c.07149-.00539.15114.00632.17947-.08748Z" style="fill:#0f4595"/><path d="M41.08765,49.49261c-1.2938,0-2.58769-.00813-3.88133.00611-.29768.00328-.38119-.06633-.33072-.37434q1.23505-7.538,2.45131-15.07916,1.13638-7.0353,2.26279-14.07221c.16034-.99677.3325-1.99175.48078-2.99029.03968-.2672.12979-.36707.416-.36582q3.88133.01687,7.76275.00048c.30115-.00123.38665.07895.33747.37884q-.87231,5.31876-1.72962,10.64-.91785,5.67232-1.83212,11.34522-.81989,5.07916-1.63532,10.159c-.042.263-.13287.364-.42067.36C43.67539,49.48247,42.38145,49.49262,41.08765,49.49261Z" style="fill:#0f4595"/><path d="M20.51443,34.3625l.9324,4.5954c.39451-1.05417.757-2.01488,1.11387-2.97766q3.50892-9.46627,7.00813-18.93612a.50427.50427,0,0,1,.56909-.39531c2.69067.01331,5.38143.00745,8.07217.00774.51958.00006.519.00062.29853.54195Q34.13873,27.92858,29.769,38.65871c-1.4093,3.45972-2.82686,6.91611-4.22148,10.38174a.54418.54418,0,0,1-.61516.3997q-4.05831-.01939-8.1167.00246c-.35461.00234-.47763-.1204-.56171-.43973q-3.642-13.833-7.29733-27.66241a.55045.55045,0,0,1-.03775-.38679c.12054-.04685.197.04729.27987.09785a27.51942,27.51942,0,0,1,8.807,8.42609,30.39175,30.39175,0,0,1,2.434,4.68556l-.00353-.009A.22555.22555,0,0,0,20.51443,34.3625Z" style="fill:#0f4595"/><path d="M20.43966,34.16317a30.39175,30.39175,0,0,0-2.434-4.68556,27.51942,27.51942,0,0,0-8.807-8.42609c-.08287-.05056-.15933-.1447-.27987-.09785l.006.00645c.02325-.07134-.02911-.07894-.0765-.09073a28.76163,28.76163,0,0,0-4.99561-2.41856,33.38917,33.38917,0,0,0-3.51438-1.1269c-.22975-.06067-.36959-.11647-.3324-.4041.03764-.29107.21849-.26307.414-.263,4.48719.00089,8.97442-.01082,13.46154.00581a3.48567,3.48567,0,0,1,3.79519,3.18018q1.34768,6.89885,2.72009,13.79286A1.30223,1.30223,0,0,1,20.43966,34.16317Z" style="fill:#f1ac13"/><path d="M20.51443,34.3625a.22555.22555,0,0,1-.0783-.20828C20.53654,34.19571,20.51345,34.28363,20.51443,34.3625Z" style="fill:#f1ac13"/><path d="M8.84836,20.8694c.04739.01179.09975.01938.0765.09073C8.83628,20.98306,8.85656,20.91422,8.84836,20.8694Z" style="fill:#0f4595"/><path d="M224.50831,58.04183a1.80543,1.80543,0,1,1,1.80889,1.90883,1.78931,1.78931,0,0,1-1.80889-1.90883m4.82705,0v-2.981H228.039v.72384a2.26,2.26,0,0,0-1.88314-.87375,3.13464,3.13464,0,0,0,0,6.26189A2.26,2.26,0,0,0,228.039,60.299v.72384h1.29635Zm43.80753,0a1.80543,1.80543,0,1,1,1.8089,1.90883,1.78932,1.78932,0,0,1-1.8089-1.90883m4.82848,0V52.66654H276.6736v3.1181a2.26,2.26,0,0,0-1.88314-.87375,3.13464,3.13464,0,0,0,0,6.26189,2.26,2.26,0,0,0,1.88314-.87375v.72384h1.29778ZM245.427,56.0716a1.48089,1.48089,0,0,1,1.50908,1.44626h-3.09382A1.53528,1.53528,0,0,1,245.427,56.0716m.0257-1.16072a3.13356,3.13356,0,0,0,.08709,6.26189,3.62341,3.62341,0,0,0,2.44422-.8352l-.63533-.96084a2.851,2.851,0,0,1-1.73466.6239,1.656,1.656,0,0,1-1.7832-1.46054h4.4273c.01285-.16133.0257-.32409.0257-.49827a2.85922,2.85922,0,0,0-2.83113-3.13095m15.6533,3.13095a1.80544,1.80544,0,1,1,1.8089,1.90883,1.78932,1.78932,0,0,1-1.8089-1.90883m4.82705,0v-2.981h-1.29635v.72384a2.26194,2.26194,0,0,0-1.88314-.87375,3.13464,3.13464,0,0,0,0,6.26189,2.26194,2.26194,0,0,0,1.88314-.87375v.72384H265.933Zm-12.14829,0a3.01194,3.01194,0,0,0,3.18092,3.13095,3.12164,3.12164,0,0,0,2.1444-.711l-.62248-1.04793a2.62008,2.62008,0,0,1-1.56048.53682,1.91238,1.91238,0,0,1,0-3.81767,2.62008,2.62008,0,0,1,1.56048.53681l.62248-1.04793a3.12164,3.12164,0,0,0-2.1444-.711,3.01194,3.01194,0,0,0-3.18092,3.13095m16.71408-3.13095a1.75974,1.75974,0,0,0-1.5719.87375v-.72384H267.642v5.96207h1.29778V57.68062c0-.98654.424-1.53478,1.27208-1.53478a2.10167,2.10167,0,0,1,.81093.14991l.39976-1.22211a2.76088,2.76088,0,0,0-.92372-.16276m-34.75163.6239a4.45923,4.45923,0,0,0-2.43137-.6239c-1.5105,0-2.48277.72384-2.48277,1.90883,0,.97226.72384,1.5719,2.05731,1.75893l.61248.08709c.711.09994,1.0465.287,1.0465.6239,0,.46115-.474.72384-1.35917.72384a3.17507,3.17507,0,0,1-1.98307-.6239L230.596,60.399a4.3008,4.3008,0,0,0,2.58128.77381c1.7218,0,2.71977-.81093,2.71977-1.946,0-1.04793-.78523-1.59617-2.083-1.7832l-.61106-.08852c-.56109-.07424-1.01081-.1856-1.01081-.58536,0-.43688.424-.69815,1.135-.69815a3.84656,3.84656,0,0,1,1.85886.51112Zm16.72693-.6239a1.75573,1.75573,0,0,0-1.57047.87375v-.72384H249.6187v5.96207H250.915V57.68062c0-.98654.424-1.53478,1.27208-1.53478a2.10168,2.10168,0,0,1,.81093.14991l.39976-1.22211a2.76087,2.76087,0,0,0-.92372-.16276m-11.06324.14991h-2.12013V53.2519h-1.31063v1.8089h-1.20926v1.185h1.20926v2.71977c0,1.38344.53681,2.20722,2.07017,2.20722a3.04264,3.04264,0,0,0,1.62187-.46115l-.37406-1.11075a2.39989,2.39989,0,0,1-1.14787.33694c-.64818,0-.85947-.39976-.85947-.998V56.24578h2.12013ZM222.027,61.02287v-3.742a2.22,2.22,0,0,0-2.34571-2.37,2.30818,2.30818,0,0,0-2.09586,1.06078,2.18847,2.18847,0,0,0-1.97023-1.06078,1.97172,1.97172,0,0,0-1.74608.88517v-.73527h-1.29778v5.96207h1.3092V57.71774a1.39541,1.39541,0,0,1,1.46053-1.58475c.8609,0,1.29635.56109,1.29635,1.5719v3.318H217.948V57.71774a1.40647,1.40647,0,0,1,1.45911-1.58475c.88517,0,1.3092.56109,1.3092,1.5719v3.318Z" style="fill:#231f20"/><path d="M255.01822,44.94126H235.37076V9.63141h19.64746Z" style="fill:#ff5f00"/><path d="M236.62948,27.28351a22.41843,22.41843,0,0,1,8.57619-17.65493,22.45629,22.45629,0,1,0,0,35.30987,22.41843,22.41843,0,0,1-8.57619-17.65493" style="fill:#eb001b"/><path d="M281.51641,27.28351a22.45495,22.45495,0,0,1-36.3321,17.65493,22.458,22.458,0,0,0,0-35.30987,22.45495,22.45495,0,0,1,36.3321,17.65493" style="fill:#f79e1b"/><path d="M386.85454,15.04842h-10.4807a1.45621,1.45621,0,0,0-1.439,1.22906L370.696,43.15275a.87251.87251,0,0,0,.86432,1.00838h5.00358a1.45617,1.45617,0,0,0,1.439-1.23059l1.14323-7.24867a1.4546,1.4546,0,0,1,1.43747-1.23059h3.31784c6.90387,0,10.88834-3.34083,11.9289-9.96118.46894-2.89641.01992-5.17215-1.33633-6.76594C393.00443,15.974,390.36242,15.04842,386.85454,15.04842Zm1.20914,9.8156c-.57315,3.76073-3.44657,3.76073-6.225,3.76073h-1.58153l1.10952-7.0234a.8731.8731,0,0,1,.86279-.73713h.72487c1.89263,0,3.678,0,4.60053,1.07887A3.49275,3.49275,0,0,1,388.06368,24.864Z" style="fill:#253b80"/><path d="M418.18323,24.74295h-5.01891a.87428.87428,0,0,0-.86279.73713l-.22221,1.40376-.35094-.50879c-1.08653-1.57693-3.5094-2.10411-5.92767-2.10411a11.54143,11.54143,0,0,0-11.20556,10.093,9.47329,9.47329,0,0,0,1.86964,7.71A7.8529,7.8529,0,0,0,402.7863,44.627a9.603,9.603,0,0,0,6.94678-2.87342l-.22374,1.39457a.87312.87312,0,0,0,.86126,1.01144h4.52084a1.45618,1.45618,0,0,0,1.439-1.23059l2.7125-17.17767A.87.87,0,0,0,418.18323,24.74295ZM411.18742,34.511a5.59354,5.59354,0,0,1-5.66255,4.7921,3.88789,3.88789,0,0,1-4.15765-4.87945,5.6179,5.6179,0,0,1,5.62423-4.83041,4.23389,4.23389,0,0,1,3.347,1.367A4.344,4.344,0,0,1,411.18742,34.511Z" style="fill:#253b80"/><path d="M444.91291,24.74295h-5.04342a1.46146,1.46146,0,0,0-1.20607.639l-6.956,10.24622L428.75893,25.782a1.46071,1.46071,0,0,0-1.39763-1.039h-4.95607a.874.874,0,0,0-.82908,1.1555l5.55527,16.30262-5.22272,7.37281a.87325.87325,0,0,0,.7126,1.37924h5.0373a1.4536,1.4536,0,0,0,1.19687-.62525l16.77465-24.21333A.87312.87312,0,0,0,444.91291,24.74295Z" style="fill:#253b80"/><path d="M461.61091,15.04842H451.12868a1.45582,1.45582,0,0,0-1.43748,1.22906l-4.23886,26.87527a.872.872,0,0,0,.86125,1.00838h5.379a1.019,1.019,0,0,0,1.00531-.86126l1.203-7.618a1.4546,1.4546,0,0,1,1.43748-1.23059h3.31631c6.90539,0,10.88834-3.34083,11.93042-9.96118.47047-2.89641.01839-5.17215-1.33787-6.76594C467.75926,15.974,465.11878,15.04842,461.61091,15.04842ZM462.82,24.864c-.57162,3.76073-3.445,3.76073-6.225,3.76073h-1.58l1.11105-7.0234a.87034.87034,0,0,1,.86125-.73713h.72487c1.89109,0,3.678,0,4.60053,1.07887A3.49308,3.49308,0,0,1,462.82,24.864Z" style="fill:#179bd7"/><path d="M492.93806,24.74295h-5.01584a.86917.86917,0,0,0-.86125.73713l-.22221,1.40376-.35248-.50879c-1.08653-1.57693-3.50787-2.10411-5.92613-2.10411a11.53991,11.53991,0,0,0-11.204,10.093,9.47825,9.47825,0,0,0,1.86811,7.71,7.857,7.857,0,0,0,6.32152,2.55313,9.60294,9.60294,0,0,0,6.94677-2.87342l-.22375,1.39457a.87365.87365,0,0,0,.86433,1.01144h4.51931a1.45579,1.45579,0,0,0,1.43748-1.23059l2.714-17.17767A.87511.87511,0,0,0,492.93806,24.74295ZM485.94225,34.511a5.59134,5.59134,0,0,1-5.66255,4.7921,3.88789,3.88789,0,0,1-4.15764-4.87945,5.62016,5.62016,0,0,1,5.62423-4.83041,4.2339,4.2339,0,0,1,3.347,1.367A4.32228,4.32228,0,0,1,485.94225,34.511Z" style="fill:#179bd7"/><path d="M498.855,15.78555l-4.3017,27.3672a.872.872,0,0,0,.86125,1.00838h4.32468a1.45383,1.45383,0,0,0,1.439-1.23059l4.24193-26.87373a.87323.87323,0,0,0-.86125-1.00991h-4.84267A.87546.87546,0,0,0,498.855,15.78555Z" style="fill:#179bd7"/><path d="M599.77643,18.04436a6.03018,6.03018,0,0,1-4.83182,2.28169,6.83692,6.83692,0,0,1,1.72565-5.00439,7.20731,7.20731,0,0,1,4.79347-2.47343,7.28017,7.28017,0,0,1-1.6873,5.19613m1.66813,2.646c-2.66517-.15339-4.94687,1.51474-6.21234,1.51474-1.28465,0-3.22121-1.438-5.33034-1.39969a7.87567,7.87567,0,0,0-6.69169,4.06487c-2.87608,4.94686-.74778,12.27129,2.03243,16.29781,1.36135,1.99408,2.99113,4.17991,5.1386,4.10321,2.03243-.07669,2.83774-1.323,5.292-1.323,2.47343,0,3.18287,1.323,5.33034,1.28465,2.22417-.03835,3.62387-1.99408,4.98521-3.98817a17.48891,17.48891,0,0,0,2.22417-4.58256,7.22436,7.22436,0,0,1-4.3333-6.57664,7.3773,7.3773,0,0,1,3.50882-6.174,7.59872,7.59872,0,0,0-5.94391-3.22122m15.39664-5.56043V45.022h4.64008V34.80234h6.42325c5.86721,0,9.9896-4.02652,9.9896-9.85538s-4.04569-9.817-9.83621-9.817H616.84119Zm4.64008,3.91147h5.34952c4.02652,0,6.32739,2.14748,6.32739,5.92473S630.85731,30.91,626.81162,30.91h-5.33034ZM646.369,45.25212a7.67677,7.67677,0,0,0,6.84508-3.8156h.09587V45.022h4.295V30.14309c0-4.31413-3.4513-7.09434-8.76247-7.09434-4.92769,0-8.57073,2.81856-8.70495,6.69169h4.17991c.34513-1.84069,2.05161-3.04865,4.39082-3.04865,2.83773,0,4.42917,1.323,4.42917,3.75808v1.649l-5.79052.34513c-5.38787.326-8.30229,2.531-8.30229,6.36573C639.04456,42.68282,642.05486,45.25212,646.369,45.25212Zm1.2463-3.54717c-2.47343,0-4.04569-1.18878-4.04569-3.0103,0-1.879,1.51474-2.972,4.41-3.14452l5.15778-.326v1.6873C653.13737,39.71086,650.75981,41.70495,647.61529,41.70495Zm15.72259,11.44681c4.525,0,6.65334-1.72565,8.51321-6.96012L680,23.33636h-4.71678l-5.46456,17.65916h-.09587l-5.46456-17.65916h-4.851l7.8613,21.76237-.42183,1.323c-.70944,2.24335-1.85987,3.10617-3.91147,3.10617-.3643,0-1.07374-.03835-1.36135-.07669v3.58552A12.78079,12.78079,0,0,0,663.33789,53.15176Z"/></svg>